<svg xmlns="http://www.w3.org/2000/svg" width="500" height="500" preserveAspectRatio="xMidYMid meet" version="1.0" viewBox="100 100 175 175" zoomAndPan="magnify"><defs><clipPath id="clipPath08b0f4036f"><path d="M 104.734375 148 L 200 148 L 200 198 L 104.734375 198 Z M 104.734375 148" clipRule="nonzero"/></clipPath><clipPath id="clipPath8e11406f8e"><path d="M 104.734375 145 L 206 145 L 206 184 L 104.734375 184 Z M 104.734375 145" clipRule="nonzero"/></clipPath><clipPath id="clipPathec753b7d6f"><path d="M 177 104.734375 L 227 104.734375 L 227 200 L 177 200 Z M 177 104.734375" clipRule="nonzero"/></clipPath><clipPath id="clipPathcc37bf34c6"><path d="M 191 104.734375 L 230 104.734375 L 230 206 L 191 206 Z M 191 104.734375" clipRule="nonzero"/></clipPath><clipPath id="clipPathe7fe00837e"><path d="M 175 177 L 270.484375 177 L 270.484375 227 L 175 227 Z M 175 177" clipRule="nonzero"/></clipPath><clipPath id="clipPatha86d2e0880"><path d="M 169 191 L 270.484375 191 L 270.484375 230 L 169 230 Z M 169 191" clipRule="nonzero"/></clipPath><clipPath id="clipPathd3cb1cfed0"><path d="M 148 175 L 198 175 L 198 270.484375 L 148 270.484375 Z M 148 175" clipRule="nonzero"/></clipPath><clipPath id="clipPath3cca4ada71"><path d="M 145 169 L 184 169 L 184 270.484375 L 145 270.484375 Z M 145 169" clipRule="nonzero"/></clipPath></defs><path fill="#737373" d="M 107.738281 210.339844 C 116.113281 169.691406 153.339844 144.386719 193.820312 151.664062 C 154.078125 145.824219 118.222656 171.183594 111.335938 211.023438 Z M 107.738281 210.339844" fillOpacity="1" fillRule="nonzero"/><g clipPath="url(#clipPath08b0f4036f)"><path fill="#737373" d="M 104.984375 196.144531 C 120.292969 157.566406 161.347656 139.109375 199.945312 153.308594 C 161.820312 140.65625 122.109375 159.402344 108.410156 197.4375 Z M 104.984375 196.144531" fillOpacity="1" fillRule="nonzero"/></g><g clipPath="url(#clipPath8e11406f8e)"><path fill="#737373" d="M 104.738281 181.683594 C 126.511719 146.347656 170.144531 135.304688 205.695312 155.988281 C 170.347656 136.90625 127.980469 148.472656 107.882812 183.554688 Z M 104.738281 181.683594" fillOpacity="1" fillRule="nonzero"/></g><path fill="#737373" d="M 107.003906 167.398438 C 134.582031 136.382812 179.472656 133.082031 210.890625 159.625 C 179.390625 134.695312 135.664062 138.730469 109.78125 169.789062 Z M 107.003906 167.398438" fillOpacity="1" fillRule="nonzero"/><path fill="#737373" d="M 111.71875 153.726562 C 144.265625 127.96875 189.046875 132.515625 215.375 164.109375 C 188.683594 134.089844 144.917969 130.46875 114.035156 156.5625 Z M 111.71875 153.726562" fillOpacity="1" fillRule="nonzero"/><path fill="#737373" d="M 118.734375 141.082031 C 155.257812 121.367188 198.570312 133.617188 219.015625 169.308594 C 197.941406 135.109375 155.46875 123.941406 120.523438 144.273438 Z M 118.734375 141.082031" fillOpacity="1" fillRule="nonzero"/><path fill="#737373" d="M 127.839844 129.84375 C 167.230469 116.773438 207.757812 136.359375 221.695312 175.054688 C 206.882812 137.71875 166.992188 119.34375 129.050781 133.300781 Z M 127.839844 129.84375" fillOpacity="1" fillRule="nonzero"/><path fill="#737373" d="M 138.757812 120.359375 C 179.820312 114.328125 216.332031 140.652344 223.335938 181.183594 C 215.230469 141.839844 179.140625 116.820312 139.347656 123.972656 Z M 138.757812 120.359375" fillOpacity="1" fillRule="nonzero"/><path fill="#737373" d="M 151.160156 112.917969 C 192.644531 114.105469 224.027344 146.371094 223.890625 187.5 C 222.738281 147.347656 191.542969 116.441406 151.113281 116.578125 Z M 151.160156 112.917969" fillOpacity="1" fillRule="nonzero"/><path fill="#737373" d="M 164.664062 107.738281 C 205.3125 116.113281 230.617188 153.339844 223.335938 193.820312 C 229.175781 154.078125 203.820312 118.222656 163.980469 111.335938 Z M 164.664062 107.738281" fillOpacity="1" fillRule="nonzero"/><g clipPath="url(#clipPathec753b7d6f)"><path fill="#737373" d="M 178.859375 104.984375 C 217.4375 120.292969 235.894531 161.347656 221.695312 199.945312 C 234.347656 161.820312 215.601562 122.109375 177.5625 108.410156 Z M 178.859375 104.984375" fillOpacity="1" fillRule="nonzero"/></g><g clipPath="url(#clipPathcc37bf34c6)"><path fill="#737373" d="M 193.320312 104.738281 C 228.652344 126.511719 239.699219 170.144531 219.015625 205.695312 C 238.09375 170.347656 226.53125 127.980469 191.449219 107.882812 Z M 193.320312 104.738281" fillOpacity="1" fillRule="nonzero"/></g><path fill="#737373" d="M 207.601562 107.003906 C 238.621094 134.582031 241.921875 179.472656 215.375 210.890625 C 240.304688 179.390625 236.273438 135.660156 205.214844 109.78125 Z M 207.601562 107.003906" fillOpacity="1" fillRule="nonzero"/><path fill="#737373" d="M 221.277344 111.71875 C 247.03125 144.265625 242.488281 189.046875 210.890625 215.375 C 240.910156 188.683594 244.535156 144.917969 218.441406 114.035156 Z M 221.277344 111.71875" fillOpacity="1" fillRule="nonzero"/><path fill="#737373" d="M 233.921875 118.734375 C 253.636719 155.257812 241.382812 198.570312 205.695312 219.015625 C 239.894531 197.941406 251.0625 155.46875 230.730469 120.523438 Z M 233.921875 118.734375" fillOpacity="1" fillRule="nonzero"/><path fill="#737373" d="M 245.15625 127.839844 C 258.230469 167.230469 238.644531 207.757812 199.945312 221.695312 C 237.285156 206.882812 255.660156 166.992188 241.703125 129.050781 Z M 245.15625 127.839844" fillOpacity="1" fillRule="nonzero"/><path fill="#737373" d="M 254.640625 138.757812 C 260.675781 179.820312 234.347656 216.332031 193.820312 223.335938 C 233.164062 215.230469 258.183594 179.140625 251.027344 139.347656 Z M 254.640625 138.757812" fillOpacity="1" fillRule="nonzero"/><path fill="#737373" d="M 262.085938 151.160156 C 260.898438 192.644531 228.628906 224.027344 187.5 223.890625 C 227.65625 222.738281 258.5625 191.542969 258.425781 151.113281 Z M 262.085938 151.160156" fillOpacity="1" fillRule="nonzero"/><path fill="#737373" d="M 267.265625 164.664062 C 258.890625 205.3125 221.664062 230.617188 181.183594 223.335938 C 220.925781 229.175781 256.78125 203.820312 263.667969 163.980469 Z M 267.265625 164.664062" fillOpacity="1" fillRule="nonzero"/><g clipPath="url(#clipPathe7fe00837e)"><path fill="#737373" d="M 270.019531 178.859375 C 254.710938 217.4375 213.65625 235.894531 175.054688 221.695312 C 213.179688 234.347656 252.894531 215.601562 266.59375 177.5625 Z M 270.019531 178.859375" fillOpacity="1" fillRule="nonzero"/></g><g clipPath="url(#clipPatha86d2e0880)"><path fill="#737373" d="M 270.265625 193.320312 C 248.492188 228.652344 204.855469 239.699219 169.308594 219.015625 C 204.65625 238.09375 247.023438 226.53125 267.117188 191.449219 Z M 270.265625 193.320312" fillOpacity="1" fillRule="nonzero"/></g><path fill="#737373" d="M 267.996094 207.601562 C 240.417969 238.621094 195.527344 241.921875 164.109375 215.375 C 195.609375 240.304688 239.339844 236.273438 265.222656 205.214844 Z M 267.996094 207.601562" fillOpacity="1" fillRule="nonzero"/><path fill="#737373" d="M 263.285156 221.277344 C 230.738281 247.03125 185.957031 242.488281 159.625 210.890625 C 186.316406 240.910156 230.082031 244.535156 260.964844 218.441406 Z M 263.285156 221.277344" fillOpacity="1" fillRule="nonzero"/><path fill="#737373" d="M 256.265625 233.921875 C 219.746094 253.636719 176.433594 241.382812 155.988281 205.695312 C 177.0625 239.894531 219.535156 251.0625 254.476562 230.730469 Z M 256.265625 233.921875" fillOpacity="1" fillRule="nonzero"/><path fill="#737373" d="M 247.160156 245.15625 C 207.769531 258.230469 167.242188 238.644531 153.308594 199.945312 C 168.121094 237.285156 208.007812 255.660156 245.953125 241.703125 Z M 247.160156 245.15625" fillOpacity="1" fillRule="nonzero"/><path fill="#737373" d="M 236.242188 254.640625 C 195.179688 260.675781 158.671875 234.347656 151.664062 193.820312 C 159.769531 233.164062 195.863281 258.183594 235.652344 251.027344 Z M 236.242188 254.640625" fillOpacity="1" fillRule="nonzero"/><path fill="#737373" d="M 223.84375 262.085938 C 182.355469 260.898438 150.972656 228.628906 151.113281 187.5 C 152.261719 227.65625 183.460938 258.5625 223.890625 258.425781 Z M 223.84375 262.085938" fillOpacity="1" fillRule="nonzero"/><path fill="#737373" d="M 210.339844 267.265625 C 169.691406 258.890625 144.386719 221.664062 151.664062 181.183594 C 145.824219 220.925781 171.183594 256.78125 211.023438 263.667969 Z M 210.339844 267.265625" fillOpacity="1" fillRule="nonzero"/><g clipPath="url(#clipPathd3cb1cfed0)"><path fill="#737373" d="M 196.144531 270.019531 C 157.566406 254.710938 139.109375 213.65625 153.308594 175.054688 C 140.65625 213.179688 159.402344 252.894531 197.4375 266.59375 Z M 196.144531 270.019531" fillOpacity="1" fillRule="nonzero"/></g><g clipPath="url(#clipPath3cca4ada71)"><path fill="#737373" d="M 181.683594 270.265625 C 146.347656 248.492188 135.304688 204.855469 155.988281 169.308594 C 136.90625 204.65625 148.472656 247.023438 183.554688 267.117188 Z M 181.683594 270.265625" fillOpacity="1" fillRule="nonzero"/></g><path fill="#737373" d="M 167.398438 267.996094 C 136.382812 240.417969 133.082031 195.527344 159.625 164.109375 C 134.695312 195.609375 138.730469 239.339844 169.789062 265.222656 Z M 167.398438 267.996094" fillOpacity="1" fillRule="nonzero"/><path fill="#737373" d="M 153.726562 263.285156 C 127.96875 230.738281 132.515625 185.957031 164.109375 159.625 C 134.089844 186.316406 130.46875 230.082031 156.5625 260.964844 Z M 153.726562 263.285156" fillOpacity="1" fillRule="nonzero"/><path fill="#737373" d="M 141.082031 256.265625 C 121.367188 219.746094 133.617188 176.433594 169.308594 155.988281 C 135.109375 177.0625 123.941406 219.535156 144.273438 254.476562 Z M 141.082031 256.265625" fillOpacity="1" fillRule="nonzero"/><path fill="#737373" d="M 129.84375 247.160156 C 116.773438 207.769531 136.359375 167.242188 175.054688 153.308594 C 137.71875 168.121094 119.34375 208.007812 133.300781 245.953125 Z M 129.84375 247.160156" fillOpacity="1" fillRule="nonzero"/><path fill="#737373" d="M 120.359375 236.242188 C 114.328125 195.179688 140.652344 158.671875 181.183594 151.664062 C 141.839844 159.769531 116.820312 195.863281 123.972656 235.652344 Z M 120.359375 236.242188" fillOpacity="1" fillRule="nonzero"/><path fill="#737373" d="M 112.917969 223.84375 C 114.105469 182.355469 146.371094 150.972656 187.5 151.113281 C 147.347656 152.261719 116.441406 183.460938 116.578125 223.890625 Z M 112.917969 223.84375" fillOpacity="1" fillRule="nonzero"/></svg>