<svg xmlns="http://www.w3.org/2000/svg" xmlns:xlink="http://www.w3.org/1999/xlink" id="Capa_1" style="enable-background:new 0 0 128 128" version="1.1" viewBox="0 0 128 128" xml:space="preserve"><style type="text/css">.st5{fill:#fff}.st14{fill:#29a7eb}.st27{fill:#0464b8}.st28{fill:#0377d4}.st29{fill:#4fd8ff}.st30{fill:#1681d7}.st31{fill:#0178d4}.st32{fill:#042071}.st33{fill:#168fde}.st48{opacity:.2}</style><g><path d="M120.2,22.8H34.2V9.1C34.2,6.8,36,5,38.2,5h77.9c2.3,0,4.1,1.8,4.1,4.1V22.8z" class="st27"/><rect width="28.7" height="26.6" x="34.2" y="22.8" class="st28"/><rect width="28.7" height="26.6" x="62.9" y="22.8" class="st14"/><rect width="28.7" height="26.6" x="91.6" y="22.8" class="st29"/><rect width="28.7" height="26.6" x="34.2" y="49.4" class="st30"/><rect width="28.7" height="26.6" x="62.9" y="49.4" class="st31"/><rect width="28.7" height="26.6" x="91.6" y="49.4" class="st14"/><rect width="28.7" height="26.6" x="62.9" y="75.9" class="st27"/><rect width="28.7" height="26.6" x="91.6" y="75.9" class="st30"/></g><path d="M126.9,69.1l-6.6,3.9V61.8l6.5,3.6C128.3,66.1,128.3,68.2,126.9,69.1z" class="st32"/><path d="M126.9,69.1l-0.6,0.4l0,0l-0.7,0.4l-5.3,3.1v-0.1l-88.4,50.6h89.1c3.8,0,6.8-3.1,6.8-6.8l0.1-49.4 C128,67.9,127.6,68.7,126.9,69.1z" class="st33"/><g><path d="M122,123.5H32.8c-3.8,0-6.8-3.1-6.8-6.8V68.5L122,123.5z" class="st14"/></g><path d="M59,96.5h-53c-3.5,0-6.4-2.9-6.4-6.4V37.9c0-3.5,2.9-6.4,6.4-6.4h53c3.5,0,6.4,2.9,6.4,6.4v52.2 C65.4,93.6,62.6,96.5,59,96.5z" class="st30"/><g><path d="M32.5,82.9c-10.3,0-16.8-7.8-16.8-18.2c0-11,7.1-18.8,17.3-18.8c10.6,0,16.8,7.9,16.8,18.1 C49.9,76.1,42.5,82.9,32.5,82.9L32.5,82.9z M32.9,77.7c6.4,0,10-5.9,10-13.4c0-6.8-3.4-13.1-10-13.1s-10.1,6.2-10.1,13.4 S26.4,77.7,32.9,77.7L32.9,77.7z" class="st5"/></g><path d="M65.5,37.3c0,0.2,0,0.4,0,0.6v52.2c0,3.5-2.9,6.4-6.4,6.4H26v5.7h38.4c3.5,0,6.4-2.9,6.4-6.4V43.6 C70.8,40.4,68.5,37.7,65.5,37.3z" class="st48"/></svg>